<svg t="1699003342579" class="icon" viewBox="0 0 1335 1024" version="1.1" xmlns="http://www.w3.org/2000/svg" p-id="3551"
     width="200" height="200">
    <path d="M1166.558609 723.424835l4.327513 8.761878 9.670121 1.415791-6.998817 6.785113 1.656209 9.643409-8.655026-4.541217-8.628313 4.541217 1.656208-9.643409-6.998817-6.785113 9.670122-1.415791 4.3008-8.761878zM995.328 977.439165l4.327513 8.735165 9.643409 1.415792-6.998818 6.811826 1.656209 9.616695-8.628313-4.541217-8.628313 4.541217 1.629496-9.616695-6.972105-6.811826 9.643409-1.415792 4.327513-8.735165z"
          fill="#F5F5F5" p-id="3552"></path>
    <path d="M603.554504 156.226783l1.602783 3.258991 3.606261 0.534261a1.068522 1.068522 0 0 1 0.587687 1.8432l-2.671305 2.537739 0.6144 3.579548a1.095235 1.095235 0 0 1-1.576069 1.148661l-3.205565-1.709635-3.205566 1.709635a1.095235 1.095235 0 0 1-1.576069-1.148661l0.587687-3.579548-2.671305-2.537739a1.068522 1.068522 0 0 1 0.6144-1.8432l3.579548-0.534261 1.602783-3.258991a1.095235 1.095235 0 0 1 2.11033 0z"
          fill="#EBEBEB" p-id="3553"></path>
    <path d="M162.361878 935.846957l1.602783 3.232278 3.579548 0.534261a1.095235 1.095235 0 0 1 0.6144 1.869913l-2.671305 2.511026 0.6144 3.579548a1.095235 1.095235 0 0 1-1.576069 1.14866l-3.205565-1.682921-3.205566 1.682921a1.095235 1.095235 0 0 1-1.576069-1.14866l0.6144-3.579548-2.671305-2.511026a1.095235 1.095235 0 0 1 0.587687-1.869913l3.579548-0.534261 1.629496-3.232278a1.095235 1.095235 0 0 1 2.083617 0z"
          fill="#F5F5F5" p-id="3554"></path>
    <path d="M230.079443 765.738296a3.552835 3.552835 0 1 1-7.105669 0.053426 3.552835 3.552835 0 0 1 7.105669-0.053426zM736.39847 321.153113a3.552835 3.552835 0 1 1-7.10567 0.053426 3.552835 3.552835 0 0 1 7.10567-0.053426z"
          fill="#EBEBEB" p-id="3555"></path>
    <path d="M552.185322 124.838957a3.552835 3.552835 0 1 1-7.10567 0 3.552835 3.552835 0 0 1 7.10567 0z" fill="#F5F5F5"
          p-id="3556"></path>
    <path d="M534.202125 976.1231a19.634087 19.634087 0 1 0 38.218108-9.020293 19.634087 19.634087 0 1 0-38.218108 9.020293Z"
          fill="#F0F0F0" p-id="3557"></path>
    <path d="M394.498226 630.356591h-162.548869v-73.38073l162.548869-193.242157h77.788383v197.409392h40.309982v69.213495h-40.309982v60.050922H394.498226v-60.050922z m0-69.213495v-101.082157l-85.909148 101.082157h85.909148zM540.40487 528.499757q0-91.599026 32.963895-128.222609 32.963896-36.623583 100.467757-36.59687 32.402922 0 53.239095 8.013913a98.277287 98.277287 0 0 1 33.952279 20.809461 111.099548 111.099548 0 0 1 20.702608 26.953461 139.914017 139.914017 0 0 1 12.154435 32.963896 308.166122 308.166122 0 0 1 8.975583 74.796521q0 87.405078-29.571339 127.928766t-101.856835 40.5504q-40.5504 0-65.527096-12.929113a106.211061 106.211061 0 0 1-40.951095-37.905809q-11.620174-17.737461-18.084731-48.5376a332.12327 332.12327 0 0 1-6.464556-67.824417z m88.527026 0.213704q0 61.44 10.818782 83.798817 10.818783 22.358817 31.441252 22.46567a32.963896 32.963896 0 0 0 23.560905-9.536557q9.990678-9.536557 14.692174-30.132313 4.701496-20.595757 4.701495-64.111304 0-63.951026-10.845495-85.989287-10.845496-22.038261-32.536487-22.011548-22.1184 0-32.055652 22.46567t-9.776974 83.050852zM993.030678 630.356591h-162.548869v-73.38073l162.548869-193.242157h77.788383v197.409392h40.443548v69.213495h-40.443548v60.050922h-77.788383v-60.050922z m0-69.213495v-101.082157l-85.882435 101.082157h85.882435z"
          fill="#3275E3" p-id="3558"></path>
    <path d="M536.932174 250.977948a4.995339 4.995339 0 1 1-9.990678 0 4.995339 4.995339 0 0 1 9.990678 0z"
          fill="#3275E3" opacity=".3" p-id="3559"></path>
    <path d="M895.367791 748.855652a3.526122 3.526122 0 1 0 7.052244 0 3.526122 3.526122 0 1 0-7.052244 0Z"
          fill="#3275E3" opacity=".3" p-id="3560"></path>
    <path d="M1133.087165 117.41273q0 0.34727-0.066782 0.690087-0.066783 0.338365-0.200348 0.658922t-0.325009 0.609948q-0.195896 0.289391-0.440765 0.534261-0.24487 0.24487-0.534261 0.440765-0.289391 0.191443-0.609948 0.325009-0.320557 0.133565-0.658922 0.200348-0.342817 0.066783-0.690087 0.066782t-0.685634-0.066782q-0.342817-0.066783-0.663374-0.200348t-0.609948-0.325009q-0.289391-0.195896-0.534261-0.440765-0.24487-0.24487-0.436313-0.534261-0.195896-0.289391-0.329461-0.609948-0.133565-0.320557-0.200348-0.658922-0.066783-0.342817-0.066782-0.690087t0.066782-0.685634q0.071235-0.342817 0.200348-0.663374 0.133565-0.320557 0.329461-0.609948 0.191443-0.289391 0.436313-0.534261 0.24487-0.24487 0.534261-0.436313 0.289391-0.195896 0.609948-0.329461 0.320557-0.133565 0.663374-0.200348 0.338365-0.066783 0.685634-0.066782t0.690087 0.066782q0.338365 0.071235 0.658922 0.200348 0.320557 0.133565 0.609948 0.329461 0.289391 0.191443 0.534261 0.436313 0.24487 0.24487 0.440765 0.534261 0.191443 0.289391 0.325009 0.609948 0.133565 0.320557 0.200348 0.663374 0.066783 0.338365 0.066782 0.685634z"
          fill="#3275E3" opacity=".3" p-id="3561"></path>
    <path d="M738.295096 227.791026a3.526122 3.526122 0 1 0 7.052243 0 3.526122 3.526122 0 1 0-7.052243 0Z"
          fill="#3275E3" opacity=".3" p-id="3562"></path>
    <path d="M318.740035 172.815583a58.528278 58.528278 0 1 0 117.056556 0 58.528278 58.528278 0 1 0-117.056556 0Z"
          fill="#407BFF" p-id="3563"></path>
    <path d="M318.740035 172.815583a58.528278 58.528278 0 1 0 117.056556 0 58.528278 58.528278 0 1 0-117.056556 0Z"
          fill="#FFFFFF" opacity=".7" p-id="3564"></path>
    <path d="M357.099965 128.658922A58.341287 58.341287 0 0 0 333.913043 133.38713a58.554991 58.554991 0 0 0 66.43534 93.201809 58.554991 58.554991 0 0 0-43.35527-97.903304l0.106852-0.026713z"
          fill="#3275E3" opacity=".2" p-id="3565"></path>
    <path d="M351.276522 144.125774q0 0.26713-0.026713 0.525356-0.022261 0.258226-0.075687 0.516453-0.048974 0.258226-0.124661 0.507547-0.080139 0.253774-0.178087 0.494192-0.1024 0.24487-0.222609 0.476382-0.124661 0.231513-0.271582 0.445218-0.146922 0.222609-0.311653 0.422956-0.169183 0.2048-0.356173 0.391792-0.178087 0.182539-0.382887 0.351721-0.2048 0.16473-0.422957 0.311652-0.222609 0.146922-0.44967 0.267131-0.231513 0.124661-0.476382 0.222609-0.240417 0.1024-0.489739 0.178087-0.253774 0.080139-0.512 0.133565-0.253774 0.044522-0.516452 0.071235-0.262678 0.026713-0.525357 0.026713t-0.520904-0.026713q-0.262678-0.022261-0.520905-0.075687-0.258226-0.048974-0.507547-0.129113-0.253774-0.075687-0.494192-0.178087-0.240417-0.097948-0.47193-0.222609-0.231513-0.120209-0.44967-0.267131-0.222609-0.146922-0.422956-0.311652-0.2048-0.169183-0.387339-0.356174-0.186991-0.182539-0.356174-0.387339-0.16473-0.200348-0.311653-0.418504-0.14247-0.222609-0.26713-0.44967-0.124661-0.231513-0.222609-0.476382-0.1024-0.240417-0.178087-0.489739-0.075687-0.253774-0.129113-0.512-0.048974-0.258226-0.075687-0.516453-0.026713-0.262678-0.026713-0.525356t0.026713-0.525357q0.026713-0.258226 0.075687-0.516452 0.053426-0.258226 0.129113-0.507548 0.075687-0.253774 0.178087-0.494191 0.097948-0.24487 0.222609-0.476383 0.124661-0.231513 0.26713-0.445217 0.146922-0.222609 0.311653-0.422956 0.169183-0.2048 0.356174-0.38734 0.182539-0.186991 0.387339-0.356173 0.2048-0.16473 0.422956-0.311653 0.218157-0.14247 0.445218-0.26713 0.235965-0.124661 0.476382-0.222609 0.240417-0.1024 0.489739-0.178087 0.253774-0.075687 0.512-0.129113 0.258226-0.048974 0.520905-0.075687 0.258226-0.026713 0.520904-0.026713 0.26713 0 0.525357 0.026713 0.262678 0.026713 0.516452 0.075687 0.258226 0.053426 0.512 0.129113 0.249322 0.075687 0.489739 0.178087 0.24487 0.097948 0.476382 0.222609 0.231513 0.124661 0.445218 0.26713 0.222609 0.146922 0.427409 0.311653 0.200348 0.169183 0.387339 0.356173 0.182539 0.182539 0.351721 0.38734 0.16473 0.200348 0.311653 0.418504 0.146922 0.222609 0.26713 0.449669 0.124661 0.231513 0.222609 0.476383 0.1024 0.240417 0.178087 0.489739 0.080139 0.253774 0.133565 0.512 0.044522 0.258226 0.071235 0.516452 0.026713 0.26713 0.026713 0.525357zM414.212452 138.783165q0 0.262678-0.026713 0.525357-0.022261 0.258226-0.075687 0.516452-0.048974 0.258226-0.124661 0.507548-0.080139 0.253774-0.178087 0.494191-0.1024 0.24487-0.222608 0.476383-0.124661 0.231513-0.271583 0.445217-0.146922 0.222609-0.311652 0.422957-0.169183 0.2048-0.356174 0.391791-0.178087 0.182539-0.382887 0.351722-0.2048 0.16473-0.422957 0.311652-0.222609 0.146922-0.449669 0.26713-0.231513 0.124661-0.476383 0.222609-0.240417 0.1024-0.489739 0.178087-0.253774 0.075687-0.512 0.129113-0.253774 0.048974-0.516452 0.075687-0.262678 0.026713-0.525357 0.026713t-0.520904-0.026713q-0.26713-0.026713-0.520904-0.075687-0.258226-0.053426-0.507548-0.129113-0.253774-0.075687-0.494191-0.178087-0.240417-0.097948-0.471931-0.222609-0.231513-0.120209-0.449669-0.26713-0.222609-0.146922-0.422957-0.311652-0.2048-0.169183-0.387339-0.356174-0.186991-0.182539-0.356174-0.387339-0.16473-0.200348-0.311652-0.418505-0.14247-0.222609-0.267131-0.449669-0.124661-0.231513-0.222608-0.476383-0.1024-0.240417-0.178087-0.489739-0.075687-0.253774-0.129113-0.512-0.048974-0.258226-0.075687-0.516452-0.026713-0.262678-0.026713-0.525357t0.026713-0.525356q0.026713-0.258226 0.075687-0.516452 0.053426-0.258226 0.129113-0.507548 0.075687-0.253774 0.178087-0.494192 0.097948-0.24487 0.222608-0.476382 0.124661-0.231513 0.267131-0.445218 0.146922-0.222609 0.311652-0.422956 0.169183-0.2048 0.356174-0.387339 0.182539-0.186991 0.387339-0.356174 0.2048-0.16473 0.422957-0.311652 0.218157-0.14247 0.445217-0.267131 0.235965-0.124661 0.476383-0.222608 0.240417-0.1024 0.489739-0.178087 0.253774-0.075687 0.512-0.129113 0.258226-0.048974 0.520904-0.075687 0.258226-0.026713 0.520904-0.026713 0.26713 0 0.525357 0.026713 0.262678 0.026713 0.516452 0.075687 0.258226 0.053426 0.512 0.129113 0.249322 0.075687 0.489739 0.178087 0.24487 0.097948 0.476383 0.222608 0.231513 0.124661 0.445217 0.267131 0.222609 0.146922 0.427409 0.311652 0.200348 0.169183 0.387339 0.356174 0.182539 0.182539 0.351722 0.387339 0.16473 0.200348 0.311652 0.418504 0.146922 0.222609 0.26713 0.44967 0.124661 0.231513 0.222609 0.476382 0.1024 0.240417 0.178087 0.48974 0.080139 0.253774 0.133565 0.512 0.044522 0.258226 0.071235 0.516452 0.026713 0.26713 0.026713 0.525356zM403.527235 176.929391q0 0.431861-0.04007 0.85927-0.044522 0.427409-0.124661 0.850365-0.089043 0.422957-0.209252 0.832557-0.124661 0.414052-0.289391 0.810295-0.16473 0.400696-0.369531 0.779131-0.2048 0.378435-0.445217 0.734608-0.235965 0.356174-0.507548 0.69454-0.276035 0.329461-0.578782 0.63666-0.302748 0.302748-0.636661 0.578783-0.333913 0.26713-0.690087 0.507548-0.356174 0.240417-0.739061 0.445217-0.378435 0.200348-0.774678 0.365078-0.400696 0.16473-0.810296 0.289392-0.414052 0.124661-0.837009 0.209252-0.418504 0.089043-0.845913 0.129113-0.431861 0.044522-0.863721 0.044522-0.427409 0-0.854818-0.044522-0.431861-0.044522-0.854817-0.129113-0.418504-0.084591-0.832557-0.209252-0.4096-0.124661-0.810295-0.289392-0.396243-0.16473-0.774679-0.365078-0.382887-0.2048-0.739061-0.445217-0.356174-0.235965-0.690087-0.512-0.333913-0.271583-0.63666-0.578783-0.3072-0.302748-0.578783-0.632208-0.271583-0.333913-0.512-0.69454-0.240417-0.356174-0.445217-0.734608-0.200348-0.378435-0.365079-0.779131-0.16473-0.400696-0.289391-0.810295-0.124661-0.4096-0.209252-0.832557t-0.124661-0.850365q-0.044522-0.427409-0.044522-0.85927t0.044522-0.859269q0.044522-0.427409 0.124661-0.845913 0.089043-0.427409 0.209252-0.837009 0.124661-0.414052 0.289391-0.810296 0.16473-0.400696 0.369531-0.77913 0.200348-0.378435 0.445217-0.734609 0.235965-0.356174 0.507548-0.690087 0.271583-0.333913 0.578783-0.636661 0.302748-0.3072 0.63666-0.578782 0.333913-0.276035 0.690087-0.512 0.356174-0.240417 0.739061-0.445218 0.378435-0.200348 0.774679-0.365078 0.400696-0.16473 0.810295-0.289391 0.414052-0.124661 0.832557-0.209252 0.422957-0.084591 0.854817-0.124661 0.427409-0.044522 0.854818-0.044522 0.431861 0 0.859269 0.044522 0.431861 0.04007 0.850365 0.124661 0.422957 0.084591 0.837009 0.209252 0.4096 0.124661 0.810296 0.289391 0.396243 0.16473 0.774678 0.365078 0.378435 0.2048 0.739061 0.445218 0.356174 0.235965 0.690087 0.512 0.333913 0.271583 0.636661 0.578782 0.302748 0.302748 0.578782 0.636661 0.271583 0.329461 0.512 0.690087 0.235965 0.356174 0.445218 0.734609 0.200348 0.382887 0.365078 0.77913 0.16473 0.400696 0.289391 0.810296 0.124661 0.4096 0.209252 0.832557 0.080139 0.422957 0.124661 0.850365 0.044522 0.427409 0.044522 0.859269zM375.692243 201.906087q0 0.578783-0.053426 1.148661-0.057878 0.569878-0.169182 1.135304-0.115757 0.560974-0.280487 1.113044-0.16473 0.547617-0.387339 1.081878-0.222609 0.529809-0.489739 1.037356-0.271583 0.507548-0.59214 0.983931-0.316104 0.476383-0.681182 0.9216-0.365078 0.445217-0.774678 0.850365-0.400696 0.4096-0.845913 0.774678-0.445217 0.360626-0.926053 0.681183-0.476383 0.320557-0.98393 0.592139-0.507548 0.26713-1.037357 0.489739-0.534261 0.222609-1.081878 0.387339-0.55207 0.16473-1.113043 0.280487-0.565426 0.111304-1.135305 0.164731-0.57433 0.057878-1.148661 0.057878t-1.144208-0.057878q-0.57433-0.053426-1.139757-0.164731-0.560974-0.115757-1.113043-0.280487-0.547617-0.169183-1.081879-0.387339-0.529809-0.222609-1.037356-0.489739-0.507548-0.271583-0.979478-0.592139-0.480835-0.320557-0.926052-0.681183-0.445217-0.365078-0.850366-0.774678-0.405148-0.405148-0.770226-0.845913-0.365078-0.445217-0.685635-0.926052-0.320557-0.476383-0.592139-0.983931-0.26713-0.507548-0.489739-1.037356-0.222609-0.534261-0.387339-1.081878-0.16473-0.55207-0.276035-1.113044-0.115757-0.565426-0.169182-1.135304-0.057878-0.57433-0.057879-1.148661 0-0.578783 0.057879-1.148661 0.053426-0.569878 0.169182-1.135304 0.111304-0.560974 0.276035-1.113044 0.169183-0.547617 0.387339-1.081878 0.222609-0.529809 0.489739-1.037357 0.271583-0.507548 0.592139-0.98393 0.320557-0.476383 0.685635-0.9216 0.365078-0.445217 0.770226-0.850365 0.405148-0.4096 0.850366-0.770226 0.445217-0.365078 0.9216-0.685635 0.476383-0.320557 0.98393-0.592139 0.507548-0.26713 1.037356-0.489739 0.534261-0.222609 1.081879-0.387339 0.55207-0.16473 1.113043-0.276035 0.565426-0.115757 1.139757-0.169183 0.569878-0.057878 1.144208-0.057878 0.578783 0 1.148661 0.057878 0.569878 0.053426 1.135305 0.169183 0.560974 0.111304 1.113043 0.276035 0.55207 0.169183 1.081878 0.387339 0.534261 0.222609 1.037357 0.489739 0.507548 0.271583 0.98393 0.592139 0.480835 0.320557 0.9216 0.685635 0.445217 0.360626 0.850366 0.770226 0.4096 0.405148 0.774678 0.845913 0.365078 0.445217 0.681182 0.926052 0.320557 0.476383 0.59214 0.98393 0.26713 0.507548 0.489739 1.037357 0.222609 0.534261 0.387339 1.081878 0.16473 0.55207 0.280487 1.113044 0.111304 0.565426 0.169182 1.135304 0.053426 0.57433 0.053426 1.148661z"
          fill="#407BFF" opacity=".2" p-id="3566"></path>
    <path d="M1009.132707 916.990445a51.369183 51.369183 0 1 0 23.600032-99.991051 51.369183 51.369183 0 1 0-23.600032 99.991051Z"
          fill="#A9C6FF" p-id="3567"></path>
    <path d="M1053.375443 827.231722a51.34247 51.34247 0 0 0-47.201947 89.007861c4.790539 1.455861 9.76807 2.194922 14.772313 2.190469a51.369183 51.369183 0 0 0 32.429634-91.19833z"
          fill="#3275E3" opacity=".4" p-id="3568"></path>
    <path d="M971.900661 882.42087c-54.841878 25.8048-13.944209 45.706017 63.336626 17.924452 71.564243-25.724661 98.838261-58.154296 34.726956-48.083479 3.445983 13.490087-86.176278 48.404035-98.063582 30.159027z"
          fill="#3275E3" p-id="3569"></path>
    <path d="M681.182609 845.743861c-45.412174 0-90.3168-20.488904-112.194783-53.933635-13.490087-20.675896-29.170643-63.977739 17.523757-121.758052l4.140521 3.365843c-33.017322 40.870957-39.107896 81.875478-17.176487 115.480487 26.713043 40.870957 89.729113 61.44 143.529183 46.801253 55.109009-14.986017 88.553739-62.909217 91.786017-131.4816 11.032487-234.567235 135.648835-306.826017 226.633461-359.584279 56.551513-32.776904 97.395757-56.444661 88.420174-106.424765-1.255513-6.918678-4.006957-11.700313-8.468035-14.638748-11.620174-7.666643-34.326261-2.350748-60.611895 3.766539-51.582887 12.02087-122.212174 28.476104-164.285218-43.088139l4.621357-2.671304c40.069565 68.1984 105.703513 52.891826 158.461774 40.603826 27.487722-6.384417 51.208904-11.914017 64.752417-3.018574 5.743304 3.766539 9.269426 9.723548 10.685218 18.16487 9.643409 53.639791-34.726957 79.391165-90.957913 111.981078-89.942817 52.143861-213.089948 123.547826-223.98887 355.283478-3.365843 71.056696-38.253078 120.76967-95.739548 136.3968a141.258574 141.258574 0 0 1-37.13113 4.754922z"
          fill="#3275E3" p-id="3570"></path>
    <path d="M835.477148 121.09913a123.013565 123.013565 0 0 1 36.276313 5.689879q29.384348 50.140383 32.857043 61.626991-1.2288 11.32633-20.328626 29.891896L835.477148 121.09913z"
          fill="#407BFF" p-id="3571"></path>
    <path d="M835.477148 121.09913a123.013565 123.013565 0 0 1 36.276313 5.689879q29.384348 50.140383 32.857043 61.626991-1.2288 11.32633-20.328626 29.891896L835.477148 121.09913z"
          fill="#3275E3" opacity=".3" p-id="3572"></path>
    <path d="M922.508243 364.535096a377.766957 377.766957 0 0 1-30.880278-43.755966q-3.365843-5.79673-6.384417-11.807165c-1.148661-2.270609-2.243896-4.541217-3.312418-6.838539a28.752139 28.752139 0 0 1-3.232278-7.185809c-3.205565-33.845426 8.387896-58.768696-2.671304-85.93586l-44.023096 17.2032q3.739826 48.404035 12.288 77.467826c5.342609 17.977878 17.310052 33.52487 28.8768 47.9232 3.606261 4.487791 7.078957 9.109148 10.685218 13.623652 3.606261 4.514504 7.239235 8.174191 10.685217 12.421565 5.209043 6.437843 6.918678 12.608557 2.991861 20.195061l-0.667826 1.202087c-1.121948 1.976765 4.113809 4.220661 7.426226 0 5.342609-6.891965 4.594643-6.464557 9.242713-12.341426a384.592139 384.592139 0 0 1 8.86873-10.685218 9.002296 9.002296 0 0 0 0.106852-11.486608z"
          fill="#D2E3FF" p-id="3573"></path>
    <path d="M911.742887 350.6176a146.089183 146.089183 0 0 1-23.133496 20.088209c1.148661 1.282226 2.270609 2.671304 3.41927 3.900104a117.323687 117.323687 0 0 0 22.706087-20.061496l-2.991861-3.926817zM922.508243 364.535096l-0.320556-0.373983c-2.052452 2.359652-3.250087 5.342609-3.392557 8.468035a13.356522 13.356522 0 0 0 1.015096 6.277565l2.537739-3.018574c2.733635-3.267896 2.80487-8.009461 0.160278-11.353043z"
          fill="#A6C8FF" p-id="3574"></path>
    <path d="M825.005635 153.154783a94.501843 94.501843 0 0 1-17.016209 19.206678c-3.615165 3.116522-7.573148 5.805635-11.807165 8.013913-2.221635 1.139757-4.523409 2.11033-6.891965 2.911722l-1.816487 0.587687-0.587687 0.160278-1.255513 0.347269c-0.770226 0.182539-1.558261 0.311652-2.350748 0.373983a20.168348 20.168348 0 0 1-6.704974-0.6144 32.678957 32.678957 0 0 1-7.853635-3.392556c-1.976765-1.157565-3.8912-2.413078-5.743304-3.76654a107.689183 107.689183 0 0 1-9.56327-8.013913 142.015443 142.015443 0 0 1-16.027826-18.004591 6.704974 6.704974 0 0 1 8.94887-9.670122h0.213704c6.304278 4.006957 12.661983 8.227617 18.859409 11.994157 3.152139 1.8432 6.197426 3.713113 9.216 5.155617 1.380174 0.721252 2.795965 1.362365 4.247374 1.923339 0.903791 0.400696 1.869913 0.632209 2.858295 0.694539 0.160278 0 0-0.186991-0.988382-0.160278a7.813565 7.813565 0 0 0-0.934957 0l-0.587687 0.133565 0.881531-0.454121c1.18873-0.636661 2.337391-1.344557 3.445982-2.110331a49.125287 49.125287 0 0 0 6.678261-5.663165 169.868243 169.868243 0 0 0 13.089391-15.466852 13.356522 13.356522 0 0 1 21.370435 15.840835l0.320557-0.026713z"
          fill="#407BFF" p-id="3575"></path>
    <path d="M825.005635 153.154783a94.501843 94.501843 0 0 1-17.016209 19.206678c-3.615165 3.116522-7.573148 5.805635-11.807165 8.013913-2.221635 1.139757-4.523409 2.11033-6.891965 2.911722l-1.816487 0.587687-0.587687 0.160278-1.255513 0.347269c-0.770226 0.182539-1.558261 0.311652-2.350748 0.373983a20.168348 20.168348 0 0 1-6.704974-0.6144 32.678957 32.678957 0 0 1-7.853635-3.392556c-1.976765-1.157565-3.8912-2.413078-5.743304-3.76654a107.689183 107.689183 0 0 1-9.56327-8.013913 142.015443 142.015443 0 0 1-16.027826-18.004591 6.704974 6.704974 0 0 1 8.94887-9.670122h0.213704c6.304278 4.006957 12.661983 8.227617 18.859409 11.994157 3.152139 1.8432 6.197426 3.713113 9.216 5.155617 1.380174 0.721252 2.795965 1.362365 4.247374 1.923339 0.903791 0.400696 1.869913 0.632209 2.858295 0.694539 0.160278 0 0-0.186991-0.988382-0.160278a7.813565 7.813565 0 0 0-0.934957 0l-0.587687 0.133565 0.881531-0.454121c1.18873-0.636661 2.337391-1.344557 3.445982-2.110331a49.125287 49.125287 0 0 0 6.678261-5.663165 169.868243 169.868243 0 0 0 13.089391-15.466852 13.356522 13.356522 0 0 1 21.370435 15.840835l0.320557-0.026713z"
          fill="#C2D7FA" p-id="3576"></path>
    <path d="M727.369461 135.5776l3.125426 5.342609q2.377461 6.998817 7.159096 8.281043l12.982539-4.193948-0.667826-1.095234c-1.656209-2.511026-1.469217-7.399513-0.908244-11.459896 0.560974-4.060383-1.522643-4.193948-3.072-3.178852-1.095235 1.264417-1.869913 2.778157-2.243895 4.407652a20.756035 20.756035 0 0 0-2.110331-2.484313l-3.95353-3.953531a4.594643 4.594643 0 0 0-6.250853-0.160278l-3.205565 2.858296c-1.567165 1.446957-1.918887 3.784348-0.854817 5.636452z"
          fill="#407BFF" p-id="3577"></path>
    <path d="M727.369461 135.5776l3.125426 5.342609q2.377461 6.998817 7.159096 8.281043l12.982539-4.193948-0.667826-1.095234c-1.656209-2.511026-1.469217-7.399513-0.908244-11.459896 0.560974-4.060383-1.522643-4.193948-3.072-3.178852-1.095235 1.264417-1.869913 2.778157-2.243895 4.407652a20.756035 20.756035 0 0 0-2.110331-2.484313l-3.95353-3.953531a4.594643 4.594643 0 0 0-6.250853-0.160278l-3.205565 2.858296c-1.567165 1.446957-1.918887 3.784348-0.854817 5.636452z"
          fill="#C2D7FA" p-id="3578"></path>
    <path d="M848.593252 116.344209a159.316591 159.316591 0 0 0-40.977809 17.283339 11.540035 11.540035 0 0 0-5.18233 12.101009c5.155617 25.217113 16.882643 58.9824 29.544626 80.4864l59.062539-24.442435c0.400696-10.418087-13.944209-44.129948-28.556243-76.719861-2.617878-5.850157-7.666643-10.204383-13.890783-8.708452z"
          fill="#D2E3FF" p-id="3579"></path>
    <path d="M871.646609 145.701843l-11.727026-3.926817c2.671304 6.865252 12.101009 15.546991 18.69913 20.649183-2.137043-5.342609-4.514504-10.952348-6.972104-16.722366z"
          fill="#407BFF" opacity=".3" p-id="3580"></path>
    <path d="M844.719861 89.898296c-4.888487-9.296139-15.440139-13.970922-28.102122-12.929113-10.685217 0.908243-20.141635 11.807165-19.019687 17.684034 1.121948 5.87687 10.09753 8.387896 11.807165 10.418087l-7.399513 5.342609a8.013913 8.013913 0 0 0-1.602782 11.459896c3.125426 3.95353 7.239235 8.013913 9.616695 11.005774 20.462191-0.534261 35.608487-8.33447 41.084661-15.840835-2.056904-9.509843-1.629496-17.897739-6.384417-27.140452z"
          fill="#D2E3FF" p-id="3581"></path>
    <path d="M834.675757 95.668313a20.221774 20.221774 0 1 1-26.205496-11.486609 20.248487 20.248487 0 0 1 26.205496 11.486609z"
          fill="#263238" p-id="3582"></path>
    <path d="M1008.123548 336.406261c-0.293843-8.788591-0.694539-8.013913-0.934957-15.413426-0.160278-4.541217-0.186991-9.589983-0.213704-13.944209a8.975583 8.975583 0 0 0-7.212522-8.761878c-3.526122-0.721252-7.078957-1.389078-10.685217-2.137044a197.142261 197.142261 0 0 1-13.703791-3.365843 158.684383 158.684383 0 0 1-10.4448-3.392557c-3.445983-1.255513-7.319374-2.671304-10.898922-4.327513a263.840278 263.840278 0 0 1-12.501705-5.716591 547.813287 547.813287 0 0 1-13.757217-6.811826c-17.577183-29.090504-17.951165-48.27047-36.810574-70.762852l-40.496974 18.325148q29.75833 52.784974 50.006818 75.170504c11.6736 12.875687 29.972035 18.69913 46.293704 22.919791 11.780452 3.018574 23.721183 5.342609 35.661913 7.559792 4.64807 0.854817 9.696835 1.175374 13.703791 3.95353a15.328835 15.328835 0 0 1 5.716592 9.216q0.26713 1.121948 0.480834 2.243896c0.507548 2.243896 5.983722 0.534261 5.796731-4.754922z"
          fill="#D2E3FF" p-id="3583"></path>
    <path d="M987.581217 295.802435c-1.602783-0.34727-3.205565-0.694539-4.83506-1.095235 0.133565 9.242713-4.193948 25.163687-5.770018 29.998748l5.075478 0.961669a101.803409 101.803409 0 0 0 5.5296-29.865182zM1007.081739 307.048626a8.975583 8.975583 0 0 0-7.185809-8.761878l-2.671304-0.507548c0.427409 3.036383 1.98567 5.801183 4.354226 7.746783 1.527096 1.411339 3.352487 2.448696 5.342609 3.045287 0.160278-0.480835 0.160278-1.015096 0.160278-1.522644z"
          fill="#A6C8FF" p-id="3584"></path>
    <path d="M830.909217 95.828591c1.068522 4.060383-3.472696 8.307757-7.078956 4.808348a82.356313 82.356313 0 0 0-11.005774-9.857113c-3.713113-2.324035 1.2288-6.384417 7.078956-4.808348a15.867548 15.867548 0 0 1 11.005774 9.857113z"
          fill="#FFFFFF" p-id="3585"></path>
    <path d="M831.203061 224.906017q-1.869913 0.694539 1.549356 3.900105 37.398261-12.795548 60.104348-25.965079a5.022052 5.022052 0 0 0-1.816487-4.22066 577.010643 577.010643 0 0 1-59.837217 26.285634z"
          fill="#A6C8FF" p-id="3586"></path>
    <path d="M858.717496 114.581148c7.3728 3.739826 14.291478 7.666643 21.370434 12.020869 3.445983 2.19047 6.865252 4.407652 10.257809 6.811826 3.392557 2.404174 6.7584 4.861774 10.150957 7.639931l1.255513 1.041809 1.576069 1.442504c0.939409 0.841461 1.829843 1.731896 2.671305 2.671304 0.854817 0.934957 1.57607 1.8432 2.270608 2.671305 0.694539 0.828104 1.442504 1.816487 2.056905 2.671304 2.493217 3.432626 4.790539 6.998817 6.891965 10.685217a157.722713 157.722713 0 0 1 10.685217 22.305392 6.731687 6.731687 0 0 1-11.192765 6.998817l-0.133565-0.160278c-5.342609-5.689878-10.498226-11.6736-15.680557-17.256626-5.18233-5.583026-10.4448-11.246191-14.799026-13.730505-6.063861-3.766539-12.822261-7.533078-19.527235-11.219478l-20.19506-11.219478a13.356522 13.356522 0 1 1 12.501704-23.614331l-0.160278 0.240418z"
          fill="#D2E3FF" p-id="3587"></path>
    <path d="M934.23527 197.872417l-2.270609-5.689878q-1.255513-7.265948-5.770018-9.296139l-13.356521 2.11033 0.454121 1.175374c1.2288 2.671304 0.293843 7.559791-0.908243 11.459896-1.202087 3.900104 0.828104 4.407652 2.537739 3.632974 0.96167-0.427409 1.896626-2.163757 2.911722-4.006957 0.498643 0.930504 1.059617 1.825391 1.682922 2.671305l3.285704 4.514504c1.424696 1.941148 4.104904 2.453148 6.144 1.175374l3.632974-2.324035a4.541217 4.541217 0 0 0 1.656209-5.422748z"
          fill="#407BFF" p-id="3588"></path>
    <path d="M934.23527 197.872417l-2.270609-5.689878q-1.255513-7.265948-5.770018-9.296139l-13.356521 2.11033 0.454121 1.175374c1.2288 2.671304 0.293843 7.559791-0.908243 11.459896-1.202087 3.900104 0.828104 4.407652 2.537739 3.632974 0.96167-0.427409 1.896626-2.163757 2.911722-4.006957 0.498643 0.930504 1.059617 1.825391 1.682922 2.671305l3.285704 4.514504c1.424696 1.941148 4.104904 2.453148 6.144 1.175374l3.632974-2.324035a4.541217 4.541217 0 0 0 1.656209-5.422748z"
          fill="#FFFFFF" opacity=".8" p-id="3589"></path>
    <path d="M847.444591 145.301148l-3.258991 0.26713-20.00807 48.297183a10.685217 10.685217 0 0 0 3.258992-0.267131q26.07193-9.723548 33.952278-13.356521-5.289183-10.925635-13.944209-34.940661z"
          fill="#407BFF" opacity=".3" p-id="3590"></path>
    <path d="M810.927861 157.96313a115.961322 115.961322 0 0 0 13.356522 35.902331c9.776974-3.365843 26.07193-9.723548 33.978991-13.356522a361.561043 361.561043 0 0 1-14.1312-34.940661c-8.361183 0.560974-26.713043 7.586504-33.204313 12.394852z"
          fill="#FFFFFF" p-id="3591"></path>
    <path d="M830.775652 168.40793a6.891965 6.891965 0 1 1-13.205148-3.949078 6.891965 6.891965 0 0 1 13.205148 3.949078z"
          fill="#407BFF" opacity=".3" p-id="3592"></path>
    <path d="M835.877843 159.218643a2.270609 2.270609 0 1 1-4.421008-1.032904 2.270609 2.270609 0 0 1 4.421008 1.032904zM841.861565 156.894609a2.270609 2.270609 0 1 1-4.327513-1.308939 2.243896 2.243896 0 0 1 2.80487-1.495931 2.270609 2.270609 0 0 1 1.522643 2.80487z"
          fill="#407BFF" opacity=".6" p-id="3593"></path>
    <path d="M850.249461 177.70407l-24.709565 9.75026-1.469218-4.861773 24.682852-9.750261 1.495931 4.861774z"
          fill="#407BFF" opacity=".5" p-id="3594"></path>
    <path d="M713.9328 548.961948a251.12487 251.12487 0 0 1-4.487791 46.34713q-4.728209 20.595757-14.692174 30.132313a32.857043 32.857043 0 0 1-23.534192 9.536557q-20.595757 0-31.441252-22.46567a63.545878 63.545878 0 0 1-3.232278-8.307756 385.482574 385.482574 0 0 0-42.527165 42.740869l-14.184626 16.722366a103.161322 103.161322 0 0 0 26.098643 19.206678q24.949983 12.9024 65.500383 12.929113c4.754922 0 9.349565-0.133565 13.810643-0.400696a383.042783 383.042783 0 0 0 40.336696-77.467826l39.66887-103.432904-51.315757 34.459826z"
          fill="#000000" opacity=".2" p-id="3595"></path>
    <path d="M356.325287 690.086957l46.747826 46.747826 130.893913-123.334122c-45.11833-17.229913-132.843965 31.68167-177.641739 76.586296zM519.354991 853.036522q-14.932591-14.959304-46.747826-46.747826l123.334122-130.893913c17.123061 45.011478-31.788522 132.817252-76.586296 177.641739z"
          fill="#263238" p-id="3596"></path>
    <path d="M698.278957 558.391652l50.9952-98.330713-98.330714 51.048626a385.251061 385.251061 0 0 0-86.657113 61.44l-167.624347 157.793948 82.356313 82.356313 157.793947-167.624348a385.242157 385.242157 0 0 0 61.466714-86.683826z"
          fill="#D2E3FF" p-id="3597"></path>
    <path d="M559.104 615.77127a34.459826 34.459826 0 1 0 68.919652 0 34.459826 34.459826 0 1 0-68.919652 0Z"
          fill="#FFFFFF" p-id="3598"></path>
    <path d="M571.418713 615.77127a22.145113 22.145113 0 1 0 44.290226 0 22.145113 22.145113 0 1 0-44.290226 0Z"
          fill="#3275E3" p-id="3599"></path>
    <path d="M506.88 783.101774l-80.646678-80.646678 66.034643-62.134539 76.746574 76.773286-62.134539 66.007931z"
          fill="#407BFF" opacity=".3" p-id="3600"></path>
    <path d="M374.570296 763.868383c-60.371478 4.888487-80.379548 43.542261-87.218087 94.911443-3.472696 26.205496-5.022052 52.731548-27.006887 68.064835a7.399513 7.399513 0 0 0 4.354226 13.5168c81.047374-2.537739 118.84633-42.206609 123.601252-58.768696a115.026365 115.026365 0 0 1-6.651548 25.297252 7.3728 7.3728 0 0 0 10.685218 9.055722c22.7328-14.238052 51.26233-40.470261 53.158956-83.024139q-16.722365-23.69447-70.92313-69.053217z"
          fill="#66A0FF" p-id="3601"></path>
    <path d="M454.869704 851.166609l-96.701217-96.701218 51.502748-11.139339 56.337808 56.337809-11.139339 51.502748z"
          fill="#3275E3" p-id="3602"></path>
</svg>