<svg t="1699259607115" class="icon" viewBox="0 0 2986 1024" version="1.1" xmlns="http://www.w3.org/2000/svg"
     p-id="12788" width="200" height="200">
    <path d="M1027.910055 536.546457c0-86.021213-53.43742-161.615613-133.810776-190.723801 3.475605-18.246924 5.213407-36.493848 5.213407-55.175223 0-160.312261-130.335172-290.647433-290.212983-290.647433-93.841324 0-180.731438 44.748409-235.47221 120.342809-26.935936-20.853627-59.954179-32.149342-94.275775-32.149343-85.152312 0-154.229953 69.077641-154.229953 154.229954 0 18.681375 3.475605 36.928299 9.557913 53.871871-79.938905 28.673738-134.679678 105.571489-134.679678 191.158252 0 86.455664 53.871871 162.050064 134.245227 191.158252-3.475605 17.812473-5.213407 36.493848-5.213407 55.175222 0 159.877811 129.900721 289.778532 289.778532 289.778532 93.841324 0 180.731438-45.18286 235.03776-120.777259 26.935936 21.288078 59.954179 33.018244 94.275774 33.018244 85.152312 0 154.229953-69.077641 154.229954-154.229954 0-18.681375-3.475605-36.928299-9.557913-53.871871 79.938905-28.673738 135.114128-105.571489 135.114128-191.158252"
          fill="#FFFFFF" p-id="12789"></path>
    <path d="M404.039033 440.967331l225.045396 102.530336L855.867628 344.519304c3.475605-16.509122 4.778956-32.583793 4.778957-49.961816 0-139.893084-113.82605-253.719134-253.719135-253.719134-83.848961 0-161.615613 41.272804-208.970725 110.350445l-37.7972 195.937209 43.879508 93.841323z"
          fill="#FED10A" p-id="12790"></path>
    <path d="M171.173526 679.046245c-3.475605 16.509122-4.778956 33.452694-4.778957 50.830717 0 140.327535 114.260501 254.153585 254.588036 254.153585 84.283411 0 162.918965-41.707255 210.274077-111.219346l37.362749-195.068307-49.961815-95.579126-225.914298-102.964786-221.569792 199.847263z"
          fill="#24BBB1" p-id="12791"></path>
    <path d="M169.870174 289.778532l154.229953 36.493848 33.887145-175.083581c-20.853627-16.074671-46.920662-24.763683-73.856597-24.763682-66.905388 0-121.64616 54.306322-121.646161 121.64616 0 14.336869 2.606703 28.673738 7.38566 41.707255"
          fill="#EF5098" p-id="12792"></path>
    <path d="M156.402206 326.706831c-68.64319 22.59143-116.867204 88.627917-116.867204 161.181162 0 70.815443 43.879508 133.810776 109.481544 159.00891l216.356386-195.502758-39.535002-84.717862-169.435724-39.969452z"
          fill="#17A8E0" p-id="12793"></path>
    <path d="M670.357234 872.811201c21.288078 16.074671 46.920662 25.198133 73.422147 25.198133 66.905388 0 121.64616-54.306322 121.64616-121.64616 0-14.771319-2.606703-29.108188-7.38566-42.141706L704.244378 698.16207l-33.887144 174.649131z"
          fill="#93C83E" p-id="12794"></path>
    <path d="M701.637675 657.758167l169.435723 39.535002c69.077641-22.59143 116.867204-88.627917 116.867204-161.615613 0-70.380993-43.879508-133.810776-109.481544-158.574459l-221.569792 194.199406 44.748409 86.455664z"
          fill="#0779A1" p-id="12795"></path>
    <path d="M1437.162495 719.015698l20.419177-2.172253 1.303351 41.707255c-53.871871 7.38566-99.923632 11.295715-138.155282 11.295715-50.830717 0-86.890115-14.771319-108.178192-44.313958s-31.714892-75.5944-31.714892-137.720832c0-124.252864 49.527365-186.379296 148.147645-186.379296 47.789563 0 83.41451 13.467968 106.874841 39.969453s35.190496 68.64319 35.190496 125.556215l-3.041154 40.403904h-233.734408c0 39.100552 6.951209 68.20874 21.288078 86.890114 14.336869 18.681375 38.666101 28.239287 73.856598 28.239288 35.624947 0.868901 71.249894-0.434451 107.743742-3.475605z m-19.115826-153.361052c0-43.445057-6.951209-74.291048-20.853627-92.103522-13.902418-17.812473-36.493848-26.935936-67.774289-26.935935s-55.175223 9.557913-70.815444 28.239287c-15.640221 18.681375-23.894782 49.092915-24.329232 90.80017h183.772592zM1544.906237 763.329656V255.022486h53.00297v508.30717h-53.00297zM1932.870598 516.12728v174.21468c0 17.812473 43.879508 21.288078 43.879508 21.288078l-2.606703 46.920662c-37.362749 0-68.20874 3.041154-86.890115-14.771319-42.576156 18.681375-84.717862 26.501485-127.294018 26.501485-32.583793 0-57.347476-9.123462-74.291048-27.804837-16.943572-18.246924-25.632584-44.748409-25.632583-79.504455 0-34.321595 8.689011-59.954179 26.067034-76.02885 17.378023-16.074671 44.748409-26.501485 82.111158-29.97709l111.219347-10.426813v-30.411541c0-23.894782-5.213407-41.272804-15.640221-51.699618-10.426814-10.426814-24.763683-15.640221-42.576156-15.64022h-139.458634v-46.920662h135.983029c39.969453 0 69.077641 9.123462 87.324566 27.804836 18.681375 18.246924 27.804837 47.355112 27.804836 86.455664z m-218.094187 144.237591c0 43.445057 17.812473 65.167586 53.871871 65.167586 32.149342 0 63.864234-5.213407 94.710225-16.074672l16.074671-5.647857v-116.867204l-104.702588 9.992363c-21.288078 1.737802-36.493848 7.82011-46.051761 18.246924-9.557913 10.426814-13.902418 25.632584-13.902418 45.18286zM2140.103521 449.221892c-51.265168 0-77.332202 17.812473-77.332202 53.871871 0 16.509122 6.082308 28.239287 17.812474 35.190497s38.666101 13.902418 80.807806 21.288078c42.141706 7.38566 71.684345 17.378023 89.062368 30.84599 17.378023 13.033517 26.067034 37.7972 26.067034 74.291048 0 36.493848-11.730165 62.995333-35.190496 79.938906-23.460331 16.943572-57.347476 25.632584-102.530335 25.632584-29.108188 0-126.859567-10.861264-126.859568-10.861265l3.041154-46.051761c56.044124 5.213407 96.882478 9.557913 124.252864 9.557913 27.370386 0 48.224014-4.344506 62.560883-13.033517s21.722529-23.460331 21.722528-43.879508-6.082308-34.321595-18.246924-41.707255c-12.164616-7.38566-39.100552-14.336869-80.807806-20.853627s-71.249894-16.074671-88.627917-29.108189c-17.378023-12.599067-26.067034-36.493848-26.067034-70.815443s12.164616-59.954179 36.493848-76.463301c24.329232-16.509122 54.740772-24.763683 90.800169-24.763683 28.673738 0 128.59737 7.38566 128.59737 7.38566v46.486211c-52.568519-3.041154-95.579126-6.951209-125.556216-6.951209zM2532.846839 455.3042h-112.522698v169.435724c0 40.403903 3.041154 67.339839 8.689011 79.938905 6.082308 12.599067 19.984726 19.115825 42.141706 19.115825l62.995333-4.344506 3.475605 43.879508c-31.714892 5.213407-55.609673 7.82011-72.118796 7.820111-36.928299 0-62.126432-9.123462-76.4633-26.935936s-21.288078-52.134069-21.288078-102.530335v-186.379296h-50.396267v-46.05176H2367.755622v-108.612644h52.568519v108.178193H2532.846839v46.486211zM2606.703437 328.879084v-61.257531h53.002969v61.691981L2606.703437 328.879084z m0 434.450572v-354.077216h53.002969V763.329656H2606.703437zM2889.96521 401.86678c15.640221 0 42.141706 3.041154 79.504455 8.689011l16.943572 2.172253-2.172253 43.010607c-37.7972-4.344506-65.602036-6.516759-83.41451-6.516759-39.969453 0-67.339839 9.557913-81.676707 28.673738s-21.722529 54.740772-21.722529 106.44039 6.516759 87.759016 19.984726 108.178193c13.467968 20.419177 41.272804 30.41154 83.848961 30.41154l83.41451-6.516759 2.172253 43.879508c-43.879508 6.516759-76.897751 9.992363-98.62028 9.992364-55.175223 0-93.406873-14.336869-114.260501-42.576157s-31.714892-76.02885-31.714892-143.368689 11.295715-114.694951 33.887145-141.630886c23.02588-26.935936 60.82308-40.838354 113.82605-40.838354z"
          fill="" p-id="12796"></path>
</svg>