<svg t="1699197662939" class="icon" viewBox="0 0 3481 1024" version="1.1" xmlns="http://www.w3.org/2000/svg" p-id="4048"
     width="200" height="200">
    <path d="M0 0h3072a409.6 409.6 0 0 1 409.6 409.6v614.4H409.6a409.6 409.6 0 0 1-409.6-409.6V0z" fill="#0A77F6"
          p-id="4049"></path>
    <path d="M525.7216 307.4048h367.7184v66.6624H603.8528v149.0944h272.384v66.6624h-272.384v162.816h301.7728V819.2h-379.904V307.4048zM954.7776 448.6144h88.8832l81.7152 117.5552 80.9984-117.5552h88.8832l-128.3072 173.4656L1311.0272 819.2h-88.8832l-96.768-141.2096L1027.8912 819.2h-89.6l144.7936-197.12-128.3072-173.4656zM1470.464 328.9088v119.7056h84.48v63.0784h-84.5824v215.04c0 10.0352 2.1504 17.2032 6.4512 22.2208 4.3008 4.3008 10.752 7.168 20.0704 7.168h48.7424V819.2H1484.8c-31.5392 0-55.1936-8.6016-69.5296-25.088-14.336-15.7696-20.7872-37.888-20.7872-67.3792v-215.04h-68.8128v-63.0784h68.8128V360.448l75.9808-31.5392zM1773.1584 438.5792c60.2112 0 106.8032 20.0704 138.24 61.6448 28.672 37.2736 43.8272 88.8832 44.544 154.8288h-280.9856c2.8672 35.84 12.1856 63.7952 29.3888 83.1488 17.2032 18.6368 40.8576 28.672 70.9632 28.672 26.5216 0 48.0256-6.4512 64.512-18.6368 12.9024-10.0352 23.552-26.5216 33.6896-48.0256h75.9808a167.1168 167.1168 0 0 1-50.8928 86.7328c-32.256 27.9552-73.1136 42.2912-122.5728 42.2912-54.4768 0-98.304-17.2032-129.7408-50.8928-34.4064-35.84-51.6096-83.8656-51.6096-144.7936 0-55.1936 15.7696-101.0688 48.7424-138.3424 31.5392-37.9904 75.264-56.6272 129.7408-56.6272z m2.048 62.3616c-28.672 0-50.7904 7.8848-67.9936 25.088-15.7696 16.4864-26.624 40.1408-30.8224 71.68h199.9872c-7.168-64.512-40.96-96.768-101.0688-96.768zM2192.7936 438.5792c18.6368 0 35.1232 2.8672 48.0256 9.3184v75.9808a180.9408 180.9408 0 0 0-53.76-7.8848 83.6608 83.6608 0 0 0-61.6448 27.9552c-19.3536 20.0704-28.672 46.592-28.672 78.848V819.2h-75.9808V448.6144h75.9808v55.9104c9.3184-20.0704 21.504-35.1232 35.84-45.056a90.624 90.624 0 0 1 60.2112-20.8896zM2475.2128 438.5792c91.7504 0 138.3424 50.176 138.3424 151.9616V819.2h-75.9808V596.992c0-63.0784-29.3888-94.6176-86.7328-94.6176-21.504 0-40.8576 7.168-56.6272 22.9376-17.2032 17.2032-27.9552 40.8576-30.72 70.9632V819.2h-76.0832V448.6144h75.9808v45.8752a142.336 142.336 0 0 1 49.4592-41.5744 129.024 129.024 0 0 1 62.464-14.336zM2867.5072 438.5792c54.4768 0 94.6176 13.6192 120.4224 40.8576 22.2208 23.6544 33.6896 58.0608 33.6896 103.2192V819.2h-70.2464v-52.3264c-14.336 18.6368-32.256 33.792-53.76 44.4416a200.0896 200.0896 0 0 1-86.016 17.92c-38.7072 0-68.8128-10.0352-90.3168-29.3888a92.3648 92.3648 0 0 1-35.1232-75.264c0-41.5744 16.384-73.728 49.4592-96.0512 30.1056-21.504 73.1136-32.256 127.5904-33.6896l83.1488-2.1504v-15.0528c0-51.6096-27.9552-77.4144-83.968-77.4144-23.552 0-43.008 4.3008-57.344 12.9024a65.7408 65.7408 0 0 0-32.1536 45.8752l-75.264-6.4512c7.8848-40.1408 27.9552-70.2464 59.392-88.8832 27.3408-17.2032 64.512-25.088 110.4896-25.088z m78.848 209.3056l-78.1312 2.1504c-69.632 1.4336-103.936 25.8048-103.936 71.68 0 14.336 5.7344 25.8048 17.92 35.1232 11.4688 9.3184 27.2384 14.336 46.592 14.336 32.256 0 59.392-10.0352 82.432-29.3888a91.9552 91.9552 0 0 0 35.1232-72.3968v-21.504zM3117.1584 297.3696h75.9808V819.2h-75.9808V297.3696z"
          fill="#FFFFFF" p-id="4050"></path>
</svg>