<svg t="1694447794173" class="icon" viewBox="0 0 1024 1024" version="1.1" xmlns="http://www.w3.org/2000/svg" p-id="1304"
     width="200" height="200">
    <path d="M565.333333 448a53.333333 53.333333 0 1 1-106.666666 0 53.333333 53.333333 0 0 1 106.666666 0z"
          fill="#000000" p-id="1305"></path>
    <path d="M263.850667 154.944A383.125333 383.125333 0 0 0 128 448c0 117.461333 52.693333 222.592 135.850667 293.056l-27.584 32.554667C143.978667 695.381333 85.333333 578.517333 85.333333 448S143.978667 200.618667 236.266667 122.389333l27.584 32.554667zM896 448c0-117.461333-52.693333-222.592-135.850667-293.056l27.584-32.554667C880.021333 200.618667 938.666667 317.482667 938.666667 448s-58.645333 247.381333-150.933334 325.610667l-27.584-32.554667A383.125333 383.125333 0 0 0 896 448z"
          fill="#000000" p-id="1306"></path>
    <path d="M346.624 250.88A258.496 258.496 0 0 0 256 448c0 79.04 35.2 149.76 90.624 197.12l-27.712 32.426667A301.162667 301.162667 0 0 1 213.333333 448c0-91.989333 41.002667-174.378667 105.6-229.546667l27.690667 32.426667zM768 448c0-79.04-35.2-149.738667-90.624-197.12l27.712-32.426667A301.162667 301.162667 0 0 1 810.666667 448c0 91.989333-41.002667 174.378667-105.6 229.546667l-27.690667-32.426667A258.496 258.496 0 0 0 768 448z"
          fill="#000000" p-id="1307"></path>
    <path d="M428.757333 358.037333C401.066667 380.010667 384 412.330667 384 448c0 35.669333 17.066667 67.989333 44.757333 89.962667l-26.517333 33.408C365.290667 542.08 341.333333 497.834667 341.333333 448c0-49.834667 23.957333-94.08 60.906667-123.370667l26.517333 33.408zM640 448c0-35.669333-17.066667-67.989333-44.757333-89.962667l26.517333-33.408C658.709333 353.92 682.666667 398.165333 682.666667 448c0 49.834667-23.957333 94.08-60.906667 123.370667l-26.517333-33.408C622.933333 515.989333 640 483.669333 640 448z"
          fill="#000000" p-id="1308"></path>
    <path d="M640 896H384l85.333333-256h85.333334l85.333333 256z" fill="#000000" p-id="1309"></path>
</svg>