<svg t="1694446454849" class="icon" viewBox="0 0 1024 1024" version="1.1" xmlns="http://www.w3.org/2000/svg" p-id="971"
     width="200" height="200">
    <path d="M445.49 558.17a30 30 0 0 0-30 30V730.6a30 30 0 1 0 60 0V588.17a30 30 0 0 0-30-30z" p-id="972"></path>
    <path d="M827.22 380.27h-64.65v-98.51c0-67.42-26.42-131-74.4-178.95s-111.53-74.4-179-74.4-131 26.42-178.95 74.4-74.4 111.53-74.4 179v98.51h-68.43c-87.72 0-159.09 71.36-159.09 159.08v297.1c0 87.72 71.37 159.09 159.09 159.09h639.83c87.72 0 159.08-71.37 159.08-159.09V539.35c0-87.72-71.36-159.08-159.08-159.08z m-511.36-98.51c0-106.61 86.74-193.35 193.36-193.35s193.35 86.74 193.35 193.35v98.51H315.86zM926.3 836.5a99.2 99.2 0 0 1-99.08 99.09H187.39A99.2 99.2 0 0 1 88.3 836.5V539.35a99.2 99.2 0 0 1 99.09-99.08h639.83a99.2 99.2 0 0 1 99.08 99.08z"
          fill="#040000" p-id="973"></path>
</svg>