<?xml version="1.0" standalone="no"?><!DOCTYPE svg PUBLIC "-//W3C//DTD SVG 1.1//EN"
        "http://www.w3.org/Graphics/SVG/1.1/DTD/svg11.dtd">
<svg height="960" node-id="1" sillyvg="true" template-height="960" template-width="750" version="1.1"
     viewBox="0 0 750 960" width="750" xmlns="http://www.w3.org/2000/svg">
    <defs node-id="63">
        <linearGradient gradientUnits="userSpaceOnUse" id="SVGID_1_" node-id="25" spreadMethod="pad" x1="474.1572"
                        x2="600.3668" y1="314.3395" y2="314.3395">
            <stop offset="0" stop-color="#0c002f"></stop>
            <stop offset="0.999" stop-color="#0a1159"></stop>
        </linearGradient>
    </defs>
    <path d="M 98.55 485.14 C 98.55 485.14 83.72 441.89 81.25 435.72 C 78.78 429.54 60.24 412.24 39.24 418.42 C 18.23 424.60 0.93 448.07 10.82 471.55 C 20.70 495.03 41.71 512.33 44.18 525.92 C 46.65 539.51 51.59 567.93 62.71 571.64 C 73.83 575.34 107.20 559.28 110.90 540.75 C 114.61 522.21 98.55 485.14 98.55 485.14 Z"
          fill="#91a5c1" fill-rule="nonzero" node-id="74" stroke="none" target-height="163.10199" target-width="113.679"
          target-x="0.932" target-y="412.24"></path>
    <path d="M 117.70 643.12 C 117.70 643.12 103.49 648.25 92.37 643.30 C 81.25 638.36 46.65 617.36 34.30 627.24 C 21.94 637.12 12.05 676.66 31.82 705.09 C 39.24 716.21 119.55 724.86 130.68 728.56 C 141.80 732.27 162.99 709.40 160.42 691.80 C 157.86 674.20 117.70 643.12 117.70 643.12 Z"
          fill="#91a5c1" fill-rule="nonzero" node-id="76" stroke="none" target-height="114.914" target-width="150.93199"
          target-x="12.054" target-y="617.355"></path>
    <path d="M 106.41 478.76 C 106.41 478.76 91.58 435.51 89.11 429.33 C 86.64 423.15 68.10 405.86 47.09 412.03 C 26.09 418.21 8.79 441.69 18.68 465.17 C 28.56 488.64 49.57 505.94 52.04 519.53 C 54.51 533.13 59.45 561.55 70.57 565.25 C 81.69 568.96 115.06 552.90 118.76 534.36 C 122.47 515.83 106.41 478.76 106.41 478.76 Z"
          fill="#b3cbf2" fill-rule="nonzero" node-id="78" stroke="none" target-height="163.10202" target-width="113.679"
          target-x="8.79" target-y="405.856"></path>
    <path d="M 125.56 636.74 C 125.56 636.74 111.35 641.86 100.23 636.92 C 89.11 631.98 54.51 610.97 42.15 620.86 C 29.80 630.74 19.91 670.28 39.68 698.70 C 47.10 709.82 127.41 718.47 138.53 722.18 C 149.65 725.88 170.84 703.02 168.28 685.42 C 165.72 667.81 125.56 636.74 125.56 636.74 Z"
          fill="#b3cbf2" fill-rule="nonzero" node-id="80" stroke="none" target-height="114.914" target-width="150.93199"
          target-x="19.912" target-y="610.971"></path>
    <path d="M 378.89 476.87 C 378.89 476.87 276.92 420.68 271.98 418.21 C 267.04 415.74 106.41 473.81 106.41 473.81 C 106.41 473.81 82.93 503.47 91.58 519.53 C 100.23 535.60 110.11 541.77 118.76 539.30 C 127.41 536.83 247.27 497.29 247.27 497.29 L 348.59 535.60 L 401.85 530.16 L 378.89 476.87 Z"
          fill="#d9e6ff" fill-rule="nonzero" node-id="82" stroke="none" target-height="126.03299" target-width="318.921"
          target-x="82.928" target-y="415.741"></path>
    <g node-id="223">
        <path d="M 323.79 526.22 L 362.19 529.42 L 373.48 529.42 L 373.48 522.54 C 373.48 522.54 297.37 505.36 285.58 500.94 C 273.79 496.52 250.39 487.82 250.55 485.54 C 250.71 483.26 245.80 485.71 245.80 485.71 L 247.47 497.37 L 323.79 526.22 Z"
              fill="#94a4c4" fill-opacity="0.8" fill-rule="nonzero" group-id="1" node-id="86" stroke="none"
              target-height="46.161987" target-width="127.683014" target-x="245.801" target-y="483.258"></path>
    </g>
    <path d="M 98.47 523.35 C 94.92 520.00 92.69 518.88 91.31 519.00 C 91.40 519.18 91.48 519.36 91.58 519.53 C 100.23 535.60 110.11 541.77 118.76 539.30 C 126.47 537.10 222.50 505.46 243.31 498.60 L 245.80 485.71 C 245.80 485.71 199.64 503.39 176.56 509.78 C 153.48 516.16 110.74 534.95 98.47 523.35 Z"
          fill="#94a4c4" fill-rule="nonzero" node-id="89" stroke="none" target-height="56.061035" target-width="154.494"
          target-x="91.308" target-y="485.714"></path>
    <path d="M 411.61 524.48 C 411.61 524.48 283.10 512.12 270.75 517.06 C 258.39 522.00 118.76 638.15 118.76 638.15 C 118.76 638.15 120.00 676.46 158.30 691.29 C 184.25 677.69 292.99 597.38 292.99 597.38 C 292.99 597.38 444.97 617.15 463.50 614.68 C 482.04 612.21 501.81 582.55 501.81 582.55 L 491.92 560.31 L 411.61 524.48 Z"
          fill="#d9e6ff" fill-rule="nonzero" node-id="91" stroke="none" target-height="179.16602"
          target-width="383.04602" target-x="118.762" target-y="512.12"></path>
    <path d="M 292.22 597.94 L 272.32 574.11 C 272.32 574.11 242.36 625.18 219.77 639.92 C 197.18 654.65 148.39 684.36 138.66 679.33 L 138.66 679.33 C 143.78 683.97 150.21 688.15 158.30 691.29 C 182.98 678.36 282.52 605.09 292.22 597.94 Z"
          fill="#94a4c4" fill-opacity="0.8" fill-rule="nonzero" group-id="2" node-id="95" stroke="none"
          target-height="117.17804" target-width="153.56598" target-x="138.656" target-y="574.11"></path>
    <path d="M 463.84 600.63 C 463.84 600.63 350.40 595.72 323.39 589.33 C 296.38 582.95 282.19 576.17 274.56 571.95 C 268.91 568.83 282.46 588.94 289.91 599.64 C 291.90 598.18 292.99 597.38 292.99 597.38 C 292.99 597.38 444.97 617.15 463.50 614.68 C 466.61 614.26 469.75 613.08 472.83 611.41 L 463.84 600.63 Z"
          fill="#94a4c4" fill-opacity="0.8" fill-rule="nonzero" group-id="3" node-id="100" stroke="none"
          target-height="48.32196" target-width="203.91599" target-x="268.911" target-y="568.827"></path>
    <path d="M 599.80 385.51 C 599.80 385.51 630.31 402.15 632.79 409.56 C 637.73 402.15 655.62 396.73 664.70 394.86 C 662.25 383.08 615.49 346.55 603.13 342.84 C 590.77 339.13 581.46 357.41 581.46 357.41 L 599.80 385.51 Z"
          fill="#aec3e5" fill-rule="nonzero" node-id="103" stroke="none" target-height="70.431" target-width="83.24103"
          target-x="581.459" target-y="339.132"></path>
    <path d="M 663.90 403.13 C 651.64 428.38 623.13 484.43 615.49 491.11 C 605.60 499.76 613.01 393.27 613.01 393.27 L 630.31 388.56 L 660.24 390.43 C 660.24 390.43 668.63 393.39 663.90 403.13 Z"
          fill="#718db5" fill-rule="nonzero" node-id="105" stroke="none" target-height="111.207"
          target-width="63.026978" target-x="605.601" target-y="388.556"></path>
    <path d="M 479.78 342.88 C 479.78 342.88 469.68 337.89 457.32 342.84 C 444.97 347.78 391.84 376.20 391.84 376.20 C 391.84 376.20 307.69 325.14 305.22 322.67 C 302.75 320.20 292.34 318.43 284.92 330.78 C 277.51 343.14 278.70 353.61 278.70 353.61 C 278.70 353.61 288.04 371.26 312.75 391.03 C 337.47 410.80 367.12 434.27 379.48 434.27 C 391.83 434.27 412.84 425.62 412.84 425.62 L 379.87 480.80 C 379.87 480.80 386.89 524.48 416.55 544.25 C 446.20 564.01 479.56 570.19 479.56 570.19 L 564.82 531.89 L 617.55 417.94 C 617.55 417.94 621.97 390.93 601.89 377.43 C 570.59 356.39 479.78 342.88 479.78 342.88 Z"
          fill="#d9e6ff" fill-rule="nonzero" node-id="107" stroke="none" target-height="251.767"
          target-width="344.46503" target-x="277.508" target-y="318.426"></path>
    <path d="M 491.15 564.99 L 539.80 543.13 C 550.80 529.90 565.99 511.34 565.99 509.78 C 565.99 507.32 575.36 415.32 575.36 415.32 C 575.36 415.32 550.27 495.05 537.51 500.94 C 524.74 506.83 499.69 545.63 479.07 539.73 C 458.44 533.84 423.08 533.35 410.32 524.51 C 397.55 515.67 436.34 546.12 436.34 546.12 L 491.15 564.99 Z"
          fill="#94a4c4" fill-rule="nonzero" node-id="109" stroke="none" target-height="149.67102"
          target-width="177.81302" target-x="397.548" target-y="415.318"></path>
    <path d="M 606.50 381.15 C 602.42 381.80 595.02 383.19 587.00 385.71 C 570.38 390.93 559.67 398.24 555.19 407.44 C 554.59 408.67 553.86 410.17 553.00 411.89 C 546.95 424.16 534.37 449.70 525.45 473.50 C 509.72 515.49 514.93 526.81 520.21 531.68 C 526.75 537.69 532.75 541.56 537.74 544.06 L 550.31 538.41 C 545.56 537.32 536.76 533.55 526.86 524.45 C 525.12 522.84 520.51 514.67 534.64 476.95 C 543.39 453.60 555.83 428.37 561.81 416.24 C 562.67 414.50 563.42 412.99 564.02 411.75 C 570.70 398.05 600.14 391.72 610.92 390.44 C 611.67 390.35 612.35 390.09 612.95 389.72 C 611.34 386.70 609.24 383.78 606.50 381.15 Z"
          fill="#718db5" fill-rule="nonzero" node-id="111" stroke="none" target-height="162.90698"
          target-width="103.231995" target-x="509.716" target-y="381.151"></path>
    <path d="M 484.63 343.65 C 481.53 343.14 479.78 342.88 479.78 342.88 C 479.78 342.88 478.04 342.02 475.11 341.37 C 475.11 341.38 475.11 341.39 475.10 341.40 C 475.03 341.62 468.10 363.37 457.12 386.85 C 442.89 417.28 428.54 436.64 415.61 442.85 C 410.77 445.17 406.24 445.58 401.80 444.10 L 396.72 452.61 C 396.95 452.75 397.20 452.88 397.46 452.98 C 400.61 454.19 403.81 454.80 407.05 454.80 C 411.27 454.80 415.56 453.77 419.86 451.70 C 435.07 444.40 450.60 423.98 466.01 391.01 C 477.26 366.95 484.18 345.28 484.46 344.37 C 484.54 344.13 484.59 343.89 484.63 343.65 Z"
          fill="#718db5" fill-rule="nonzero" node-id="113" stroke="none" target-height="113.42999"
          target-width="87.91101" target-x="396.718" target-y="341.372"></path>
    <path d="M 381.02 434.23 L 379.87 420.40 C 379.87 420.40 373.98 423.84 366.12 420.40 C 358.26 416.96 286.07 361.47 286.07 361.47 C 286.07 361.47 280.67 353.61 281.16 348.70 C 281.46 345.70 281.91 349.88 280.67 356.56 C 280.69 357.40 281.16 358.52 281.16 358.52 C 281.16 358.52 288.04 371.26 312.76 391.03 C 337.47 410.80 367.12 434.27 379.48 434.27 C 379.98 434.27 380.50 434.26 381.02 434.23 Z"
          fill="#94a4c4" fill-opacity="0.8" fill-rule="nonzero" group-id="4" node-id="117" stroke="none"
          target-height="88.573" target-width="100.35199" target-x="280.669" target-y="345.702"></path>
    <path d="M 412.77 425.80 L 418.66 417.45 C 418.66 417.45 389.20 428.75 379.87 420.40 C 379.63 427.16 380.10 431.54 380.64 434.25 C 393.10 433.75 412.84 425.63 412.84 425.63 L 412.40 426.03 L 412.77 425.80 Z"
          fill="#94a4c4" fill-opacity="0.8" fill-rule="nonzero" group-id="5" node-id="122" stroke="none"
          target-height="16.799011" target-width="39.036987" target-x="379.627" target-y="417.452"></path>
    <path d="M 383.49 474.86 C 383.49 474.86 390.05 495.96 409.82 515.67 C 429.29 535.07 468.34 556.24 501.66 557.41 C 535.16 558.60 483.49 568.71 483.49 568.71 C 483.49 568.71 414.10 545.80 398.69 525.94 C 382.32 504.87 380.36 497.01 377.90 480.31 C 377.41 477.86 379.75 474.32 383.49 474.86 Z"
          fill="#db6445" fill-rule="nonzero" node-id="125" stroke="none" target-height="94.38498"
          target-width="157.74802" target-x="377.413" target-y="474.322"></path>
    <path d="M 696.50 436.14 C 687.81 436.14 678.11 434.50 667.47 431.21 C 654.52 427.22 644.97 422.21 644.57 422.00 C 640.97 420.11 639.59 415.65 641.49 412.05 C 643.38 408.45 647.84 407.07 651.44 408.97 C 651.70 409.11 660.49 413.67 672.07 417.22 C 686.82 421.73 699.44 422.60 708.58 419.74 C 715.31 417.62 720.19 413.52 723.48 407.18 C 735.08 384.84 730.59 358.57 721.51 343.61 C 713.30 330.09 703.93 328.07 699.08 328.07 C 682.89 328.07 657.34 325.87 627.57 315.38 C 591.93 302.82 559.67 281.71 531.71 252.64 C 520.27 240.75 508.72 232.85 497.39 229.16 C 487.90 226.07 478.51 225.93 469.46 228.74 C 445.28 236.27 428.65 263.15 425.94 279.67 C 423.80 292.67 436.85 304.16 448.18 311.50 C 461.82 320.35 476.43 325.49 476.58 325.54 C 480.42 326.87 482.45 331.07 481.12 334.91 C 479.78 338.75 475.59 340.79 471.75 339.45 C 471.09 339.23 455.51 333.77 440.39 324.01 C 412.99 306.32 409.50 288.84 411.40 277.28 C 413.24 266.03 419.52 252.68 428.18 241.56 C 435.40 232.29 447.67 220.09 465.09 214.68 C 482.83 209.15 510.63 209.49 542.33 242.43 C 568.68 269.82 599.01 289.69 632.47 301.49 C 660.28 311.29 684.04 313.34 699.08 313.34 C 712.60 313.34 725.37 321.59 734.10 335.96 C 740.46 346.43 744.35 359.58 745.06 373.00 C 745.83 387.61 742.89 401.78 736.55 413.97 C 731.43 423.84 723.49 430.51 712.95 433.80 C 707.97 435.36 702.48 436.14 696.50 436.14 Z"
          fill="#718db5" fill-rule="nonzero" group-id="6" node-id="129" stroke="none" target-height="226.984"
          target-width="336.33102" target-x="409.499" target-y="209.154"></path>
    <path d="M 626.61 302.06 C 626.61 345.74 591.20 381.14 547.53 381.14 C 503.85 381.14 468.45 345.74 468.45 302.06 C 468.45 258.39 503.85 222.98 547.53 222.98 C 591.20 222.98 626.61 258.39 626.61 302.06 Z"
          fill="#ced9ed" fill-rule="nonzero" node-id="132" stroke="none" target-height="158.162"
          target-width="158.16196" target-x="468.446" target-y="222.981"></path>
    <path d="M 600.37 314.34 C 600.37 351.23 572.11 381.14 537.26 381.14 C 502.41 381.14 474.16 351.23 474.16 314.34 C 474.16 277.44 502.41 247.54 537.26 247.54 C 572.11 247.54 600.37 277.44 600.37 314.34 Z"
          fill="url(#SVGID_1_)" fill-rule="nonzero" node-id="134" stroke="none" target-height="133.606"
          target-width="126.20999" target-x="474.157" target-y="247.536"></path>
    <path d="M 605.50 355.85 C 591.05 371.40 570.43 381.14 547.53 381.14 C 514.57 381.14 486.32 360.97 474.44 332.31 C 470.46 333.78 464.75 338.89 478.09 356.56 C 497.73 392.90 547.76 390.93 557.64 390.93 C 567.53 390.93 613.13 381.11 613.13 368.83 C 613.13 357.46 609.00 355.48 605.50 355.85 Z"
          fill="#db6445" fill-rule="nonzero" node-id="136" stroke="none" target-height="60.593994"
          target-width="148.389" target-x="464.746" target-y="332.305"></path>
    <path d="M 292.66 319.24 C 292.66 319.24 281.11 291.52 271.22 287.18 C 261.32 282.83 267.44 300.57 273.76 308.23 C 264.85 303.02 247.00 277.13 237.14 278.77 C 227.27 280.42 251.70 306.38 257.54 309.22 C 244.90 306.89 223.99 291.62 220.64 294.36 C 217.29 297.10 213.02 309.17 252.08 319.23 C 239.22 317.49 219.80 312.16 219.40 315.81 C 219.00 319.45 216.99 328.19 248.70 328.98 C 241.46 330.65 222.93 336.00 223.35 338.34 C 223.78 340.68 226.40 344.21 249.91 340.53 C 255.00 340.14 260.69 342.54 262.16 343.00 C 263.64 343.45 280.93 346.56 280.93 346.56 L 292.66 319.24 Z"
          fill="#d9e6ff" fill-rule="nonzero" node-id="138" stroke="none" target-height="69.43201"
          target-width="79.64101" target-x="213.019" target-y="277.128"></path>
    <path d="M 450.72 603.92 C 450.72 603.92 435.19 604.83 424.99 606.64 C 420.72 607.39 401.17 611.50 402.62 620.92 C 403.57 627.11 422.30 623.40 422.30 623.40 L 388.34 638.05 C 388.34 638.05 382.35 640.46 383.43 645.27 C 384.29 649.14 392.14 646.62 392.14 646.62 L 417.14 637.88 L 386.31 653.88 C 386.31 653.88 381.79 657.39 384.21 661.06 C 386.63 664.72 391.82 662.61 391.82 662.61 L 424.51 647.10 L 398.22 665.41 C 398.22 665.41 393.76 669.41 397.21 673.45 C 400.67 677.48 406.43 672.80 406.43 672.80 L 431.43 655.63 L 409.76 677.56 C 409.76 677.56 406.90 681.37 409.74 683.79 C 413.19 686.73 416.42 683.28 416.42 683.28 L 441.75 663.48 C 441.75 663.48 462.67 646.20 467.13 642.20 C 471.59 638.19 475.56 628.91 475.56 628.91 L 450.72 603.92 Z"
          fill="#eef3ff" fill-rule="nonzero" node-id="140" stroke="none" target-height="82.81201"
          target-width="93.77301" target-x="381.787" target-y="603.92"></path>
    <path d="M 451.80 588.11 C 446.85 590.58 444.38 604.17 456.74 617.77 C 469.10 631.36 483.92 636.30 493.81 631.36 C 503.69 626.42 590.77 559.07 595.72 554.13 C 600.66 549.19 614.47 520.14 616.95 506.54 C 619.42 492.95 648.61 400.90 613.24 394.10 C 581.11 387.92 573.70 411.40 573.70 411.40 L 542.59 512.12 L 451.80 588.11 Z"
          fill="#eef3ff" fill-rule="nonzero" node-id="142" stroke="none" target-height="248.37802"
          target-width="204.23102" target-x="444.383" target-y="387.923"></path>
    <path d="M 602.34 543.63 L 593.08 543.59 C 593.08 543.59 576.30 562.82 552.24 581.97 C 528.18 601.12 491.65 627.80 482.17 626.49 C 483.57 629.28 486.67 631.27 490.16 632.68 C 491.44 632.37 492.66 631.93 493.81 631.36 C 503.69 626.42 590.77 559.07 595.72 554.13 C 597.26 552.59 599.68 548.68 602.34 543.63 Z"
          fill="#94a4c4" fill-opacity="0.5" fill-rule="nonzero" group-id="7" node-id="146" stroke="none"
          target-height="89.091" target-width="120.172" target-x="482.167" target-y="543.59"></path>
    <path d="M 616.94 506.54 C 618.62 497.33 632.58 452.04 630.37 421.71 C 627.79 432.74 604.73 529.93 593.08 538.02 C 595.94 540.63 599.22 542.39 602.36 543.59 C 608.21 532.49 615.25 515.87 616.94 506.54 Z"
          fill="#94a4c4" fill-opacity="0.5" fill-rule="nonzero" group-id="8" node-id="151" stroke="none"
          target-height="121.87503" target-width="39.50403" target-x="593.079" target-y="421.715"></path>
    <path d="M 394.38 374.84 C 394.38 374.84 387.24 378.66 384.78 390.93 C 382.32 403.21 382.26 431.00 383.27 434.05 C 384.29 437.10 377.49 436.89 377.20 434.05 C 376.92 431.20 373.12 378.25 389.26 374.28 C 392.64 373.75 396.62 373.48 394.38 374.84 Z"
          fill="#db6445" fill-rule="nonzero" node-id="154" stroke="none" target-height="63.61502"
          target-width="23.501007" target-x="373.123" target-y="373.481"></path>
    <path d="M 543.33 509.82 C 543.33 509.82 558.13 528.44 579.25 534.33 C 600.37 540.23 605.96 540.85 605.96 540.85 C 605.96 540.85 609.20 546.48 602.33 546.30 C 595.46 546.12 569.43 542.68 554.20 532.86 C 538.98 523.04 539.94 514.37 539.94 514.37 C 539.94 514.37 538.34 510.36 543.33 509.82 Z"
          fill="#db6445" fill-rule="nonzero" node-id="156" stroke="none" target-height="36.653015"
          target-width="70.85297" target-x="538.343" target-y="509.823"></path>
    <path d="M 278.67 421.25 C 278.67 421.25 261.52 420.40 257.59 434.15 C 253.66 447.90 248.73 481.39 251.20 498.78 C 249.25 503.10 242.76 498.78 242.76 498.78 C 242.76 498.78 240.97 445.96 249.73 432.19 C 256.60 421.38 258.99 421.57 260.53 420.89 C 262.08 420.21 273.23 413.76 278.67 421.25 Z"
          fill="#db6445" fill-rule="nonzero" node-id="158" stroke="none" target-height="89.34" target-width="37.701996"
          target-x="240.965" target-y="413.758"></path>
    <path d="M 273.47 516.44 C 273.47 516.44 260.04 532.37 264.46 549.06 C 268.88 565.76 281.63 585.80 296.87 597.88 C 302.78 601.90 291.62 604.72 287.13 601.69 C 282.63 598.66 257.59 571.16 255.62 550.05 C 253.66 528.93 260.64 523.71 260.64 523.71 C 260.64 523.71 270.69 512.31 273.47 516.44 Z"
          fill="#db6445" fill-rule="nonzero" node-id="160" stroke="none" target-height="92.409" target-width="49.11801"
          target-x="253.66" target-y="512.308"></path>
    <path d="M 450.18 589.42 C 450.18 589.42 451.32 604.31 463.60 614.62 C 475.88 624.94 491.59 630.83 494.05 631.32 C 496.50 631.81 493.06 635.25 486.19 634.27 C 479.31 633.29 467.53 632.79 458.20 621.50 C 448.87 610.21 440.70 594.17 450.18 589.42 Z"
          fill="#db6445" fill-rule="nonzero" node-id="162" stroke="none" target-height="45.830017"
          target-width="55.804993" target-x="440.696" target-y="589.42"></path>
    <path d="M 281.16 358.52 C 281.16 358.52 275.76 354.10 275.76 348.70 C 275.76 343.30 274.52 334.58 285.09 321.20 C 292.45 311.87 302.28 315.80 302.28 315.80 C 302.28 315.80 305.71 317.27 303.60 321.46 C 297.86 324.15 293.93 324.15 291.96 327.58 C 283.62 340.84 282.87 348.58 281.16 358.52 Z"
          fill="#db6445" fill-rule="nonzero" node-id="164" stroke="none" target-height="46.65399"
          target-width="31.190002" target-x="274.525" target-y="311.868"></path>
    <path d="M 110.70 472.27 C 110.70 472.27 94.55 503.39 95.04 511.25 C 95.53 519.11 104.86 532.37 118.61 539.73 C 122.05 541.70 115.17 543.66 109.28 540.72 C 103.39 537.77 88.16 525.98 87.18 512.72 C 86.20 499.46 104.17 472.27 104.17 472.27 C 104.17 472.27 108.68 468.15 110.70 472.27 Z"
          fill="#db6445" fill-rule="nonzero" node-id="166" stroke="none" target-height="75.50998" target-width="35.85"
          target-x="86.197" target-y="468.152"></path>
    <path d="M 120.79 636.47 C 120.79 636.47 115.92 634.36 115.55 638.86 C 115.17 643.35 116.65 666.92 129.41 679.69 C 142.18 692.46 159.37 695.41 159.37 695.41 C 159.37 695.41 163.88 692.95 160.65 690.01 C 157.41 687.06 142.67 682.15 134.81 671.84 C 126.96 661.52 121.49 648.74 120.79 636.47 Z"
          fill="#db6445" fill-rule="nonzero" node-id="168" stroke="none" target-height="61.04602"
          target-width="48.711998" target-x="115.173" target-y="634.363"></path>
    <path d="M 412.77 428.26 C 412.23 428.26 411.69 428.08 411.24 427.72 C 410.18 426.88 410.01 425.33 410.85 424.27 C 412.04 422.77 440.17 387.57 449.69 381.05 C 450.81 380.29 452.34 380.57 453.10 381.69 C 453.87 382.81 453.58 384.34 452.46 385.10 C 443.54 391.21 414.98 426.97 414.69 427.33 C 414.21 427.94 413.49 428.26 412.77 428.26 Z"
          fill="#94a4c4" fill-rule="nonzero" group-id="9" node-id="172" stroke="none" target-height="47.971985"
          target-width="43.862976" target-x="410.006" target-y="380.285"></path>
    <path d="M 446.52 649.13 L 446.83 649.73 L 446.77 650.60 L 446.39 651.49 L 445.65 652.43 L 444.72 653.16 L 443.83 653.54 L 442.96 653.60 L 442.36 653.29 L 442.05 652.68 L 442.11 651.82 L 442.49 650.93 L 443.22 649.99 L 444.16 649.26 L 445.05 648.88 L 445.91 648.82 L 446.52 649.13 Z"
          fill="#db6445" fill-rule="nonzero" group-id="10" node-id="177" stroke="none" target-height="4.776367"
          target-width="4.776306" target-x="442.0509" target-y="648.82153"></path>
    <path d="M 439.48 642.67 L 439.67 643.32 L 439.46 644.16 L 438.92 644.97 L 438.03 645.76 L 436.98 646.31 L 436.03 646.53 L 435.18 646.43 L 434.63 646.02 L 434.44 645.36 L 434.65 644.53 L 435.19 643.72 L 436.08 642.93 L 437.14 642.38 L 438.08 642.16 L 438.94 642.26 L 439.48 642.67 Z"
          fill="#db6445" fill-rule="nonzero" group-id="11" node-id="182" stroke="none" target-height="4.367981"
          target-width="5.2297363" target-x="434.4418" target-y="642.1603"></path>
    <path d="M 432.75 635.48 L 432.88 636.15 L 432.61 636.96 L 432.01 637.73 L 431.05 638.44 L 429.96 638.91 L 429.00 639.05 L 428.15 638.88 L 427.64 638.43 L 427.51 637.76 L 427.78 636.94 L 428.38 636.18 L 429.33 635.46 L 430.43 635.00 L 431.39 634.86 L 432.24 635.03 L 432.75 635.48 Z"
          fill="#db6445" fill-rule="nonzero" group-id="12" node-id="187" stroke="none" target-height="4.189087"
          target-width="5.376953" target-x="427.50552" target-y="634.85815"></path>
    <path d="M 428.07 626.72 L 428.06 627.40 L 427.62 628.14 L 426.88 628.76 L 425.80 629.27 L 424.63 629.50 L 423.66 629.43 L 422.87 629.09 L 422.47 628.54 L 422.47 627.86 L 422.91 627.12 L 423.66 626.50 L 424.73 626.00 L 425.90 625.77 L 426.87 625.83 L 427.66 626.17 L 428.07 626.72 Z"
          fill="#db6445" fill-rule="nonzero" group-id="13" node-id="192" stroke="none" target-height="3.7279053"
          target-width="5.604004" target-x="422.46503" target-y="625.7683"></path>
    <path d="M 495.38 294.68 C 494.88 294.68 494.36 294.58 493.86 294.38 C 491.83 293.54 490.87 291.21 491.71 289.18 C 496.85 276.77 506.35 267.59 519.16 262.63 C 528.74 258.93 536.81 258.88 537.15 258.88 C 539.35 258.88 541.13 260.66 541.13 262.86 C 541.13 265.06 539.35 266.83 537.16 266.84 C 537.05 266.84 529.99 266.92 521.77 270.15 C 511.02 274.38 503.38 281.81 499.06 292.23 C 498.43 293.76 496.94 294.68 495.38 294.68 Z"
          fill="#ffffff" fill-rule="nonzero" group-id="14" node-id="197" stroke="none" target-height="35.79901"
          target-width="50.257996" target-x="490.87" target-y="258.883"></path>
    <path d="M 496.98 308.60 C 496.98 310.80 495.20 312.58 493.00 312.58 C 490.80 312.58 489.02 310.80 489.02 308.60 C 489.02 306.41 490.80 304.62 493.00 304.62 C 495.20 304.62 496.98 306.41 496.98 308.60 Z"
          fill="#ffffff" fill-rule="nonzero" node-id="200" stroke="none" target-height="7.9559937"
          target-width="7.9559937" target-x="489.021" target-y="304.624"></path>
    <path d="M 467.48 419.92 L 521.13 456.63 C 522.87 457.82 523.30 460.22 522.08 461.95 L 495.95 498.86 C 494.64 500.71 492.02 501.01 490.33 499.50 L 440.48 455.05 C 439.00 453.73 438.79 451.49 440.00 449.92 L 462.33 420.74 C 463.55 419.14 465.81 418.78 467.48 419.92 Z"
          fill="#94a4c4" fill-rule="nonzero" group-id="15" node-id="204" stroke="none" target-height="82.22702"
          target-width="84.51199" target-x="438.79" target-y="418.779"></path>
    <path d="M 468.16 422.00 L 519.03 456.80 C 520.68 457.94 521.09 460.21 519.93 461.85 L 495.16 496.85 C 493.92 498.60 491.43 498.88 489.83 497.45 L 442.56 455.31 C 441.16 454.05 440.96 451.93 442.10 450.44 L 463.27 422.78 C 464.44 421.26 466.58 420.92 468.16 422.00 Z"
          fill="#d9e6ff" fill-rule="nonzero" group-id="15" node-id="206" stroke="none" target-height="77.96503"
          target-width="80.13199" target-x="440.959" target-y="420.916"></path>
    <path d="M 492.28 489.56 C 492.28 490.88 491.22 491.94 489.90 491.94 C 488.59 491.94 487.52 490.88 487.52 489.56 C 487.52 488.25 488.59 487.18 489.90 487.18 C 491.22 487.18 492.28 488.25 492.28 489.56 Z"
          fill="#94a4c4" fill-rule="nonzero" group-id="15" node-id="208" stroke="none" target-height="4.76001"
          target-width="4.76001" target-x="487.522" target-y="487.181"></path>
    <path d="M 486.99 484.77 C 486.99 486.08 485.92 487.15 484.61 487.15 C 483.29 487.15 482.23 486.08 482.23 484.77 C 482.23 483.45 483.29 482.39 484.61 482.39 C 485.92 482.39 486.99 483.45 486.99 484.77 Z"
          fill="#94a4c4" fill-rule="nonzero" group-id="15" node-id="210" stroke="none" target-height="4.76001"
          target-width="4.76001" target-x="482.229" target-y="482.388"></path>
    <path d="M 481.70 479.98 C 481.70 481.29 480.63 482.36 479.32 482.36 C 478.00 482.36 476.94 481.29 476.94 479.98 C 476.94 478.66 478.00 477.60 479.32 477.60 C 480.63 477.60 481.70 478.66 481.70 479.98 Z"
          fill="#94a4c4" fill-rule="nonzero" group-id="15" node-id="212" stroke="none" target-height="4.76001"
          target-width="4.76001" target-x="476.936" target-y="477.595"></path>
    <path d="M 495.74 452.33 C 495.34 452.30 494.95 452.16 494.60 451.92 L 464.51 430.96 C 463.43 430.21 463.17 428.73 463.92 427.65 C 464.67 426.57 466.15 426.31 467.23 427.06 L 497.32 448.01 C 498.40 448.76 498.66 450.25 497.91 451.32 C 497.41 452.05 496.56 452.41 495.74 452.33 Z"
          fill="#94a4c4" fill-rule="nonzero" group-id="15,16" node-id="216" stroke="none" target-height="26.105011"
          target-width="35.498993" target-x="463.165" target-y="426.306"></path>
    <path d="M 485.05 454.21 C 484.62 454.17 484.20 454.02 483.83 453.74 L 461.49 436.85 C 460.44 436.06 460.24 434.56 461.03 433.52 C 461.82 432.47 463.31 432.26 464.36 433.05 L 486.70 449.94 C 487.75 450.74 487.96 452.23 487.17 453.28 C 486.65 453.96 485.84 454.29 485.05 454.21 Z"
          fill="#94a4c4" fill-rule="nonzero" group-id="15,17" node-id="221" stroke="none" target-height="22.027008"
          target-width="27.722015" target-x="460.237" target-y="432.259"></path>
</svg>